<?xml version="1.0" encoding="UTF-8" standalone="no"?>
<svg
   xmlns:dc="http://purl.org/dc/elements/1.1/"
   xmlns:cc="http://creativecommons.org/ns#"
   xmlns:rdf="http://www.w3.org/1999/02/22-rdf-syntax-ns#"
   xmlns:svg="http://www.w3.org/2000/svg"
   xmlns="http://www.w3.org/2000/svg"
   viewBox="0 0 341.33334 341.33334"
   height="341.33334"
   width="341.33334"
   xml:space="preserve"
   id="svg2"
   version="1.1"><metadata
     id="metadata8"><rdf:RDF><cc:Work
         rdf:about=""><dc:format>image/svg+xml</dc:format><dc:type
           rdf:resource="http://purl.org/dc/dcmitype/StillImage" /></cc:Work></rdf:RDF></metadata><defs
     id="defs6"><clipPath
       id="clipPath18"
       clipPathUnits="userSpaceOnUse"><path
         id="path16"
         d="M 0,256 H 256 V 0 H 0 Z" /></clipPath><linearGradient
       id="linearGradient42"
       spreadMethod="pad"
       gradientTransform="matrix(0,-134.86823,134.86823,0,119.79129,194.5643)"
       gradientUnits="userSpaceOnUse"
       y2="0"
       x2="1"
       y1="0"
       x1="0"><stop
         id="stop36"
         offset="0"
         style="stop-opacity:1;stop-color:#ffffff" /><stop
         id="stop38"
         offset="0.81"
         style="stop-opacity:1;stop-color:#b49aff" /><stop
         id="stop40"
         offset="1"
         style="stop-opacity:1;stop-color:#b49aff" /></linearGradient><linearGradient
       id="linearGradient66"
       spreadMethod="pad"
       gradientTransform="matrix(0,-93.930878,93.930878,0,129.99533,206.23967)"
       gradientUnits="userSpaceOnUse"
       y2="0"
       x2="1"
       y1="0"
       x1="0"><stop
         id="stop58"
         offset="0"
         style="stop-opacity:1;stop-color:#ffffff" /><stop
         id="stop60"
         offset="0.16"
         style="stop-opacity:1;stop-color:#ffffff" /><stop
         id="stop62"
         offset="0.78"
         style="stop-opacity:1;stop-color:#ecfb3e" /><stop
         id="stop64"
         offset="1"
         style="stop-opacity:1;stop-color:#ecfb3e" /></linearGradient></defs><g
     transform="matrix(1.3333333,0,0,-1.3333333,0,341.33333)"
     id="g10"><g
       id="g12"><g
         clip-path="url(#clipPath18)"
         id="g14"><g
           transform="translate(256,128)"
           id="g20"><path
             id="path22"
             style="fill:#000000;fill-opacity:1;fill-rule:nonzero;stroke:none"
             d="m 0,0 c 0,-70.692 -57.308,-128 -128,-128 -70.692,0 -128,57.308 -128,128 0,70.692 57.308,128 128,128 C -57.308,128 0,70.692 0,0" /></g></g></g><g
       id="g24"><g
         id="g26"><g
           id="g32"><g
             id="g34"><path
               id="path44"
               style="fill:url(#linearGradient42);stroke:none"
               d="m 95.298,195.975 c -0.181,0 -0.329,-0.147 -0.329,-0.329 v 0 c 0,-0.164 0.121,-0.303 0.286,-0.32 v 0 c 0.276,-0.035 0.692,-0.078 1.021,-0.121 v 0 c 0.069,-0.008 0.13,-0.018 0.2,-0.027 v 0 c 0.363,-0.051 0.735,-0.103 1.116,-0.155 v 0 c 0.078,-0.008 0.164,-0.026 0.251,-0.034 v 0 c 0.311,-0.053 0.622,-0.096 0.943,-0.148 v 0 c 0.112,-0.017 0.217,-0.034 0.329,-0.051 v 0 c 0.364,-0.061 0.727,-0.122 1.108,-0.191 v 0 c 0.043,-0.009 0.095,-0.017 0.147,-0.026 v 0 c 0.433,-0.078 0.883,-0.165 1.342,-0.251 v 0 c 21.619,-4.137 66.123,-19.56 66.123,-54.742 v 0 c 0,-24.13 -24.797,-48.64 -96.822,-48.64 v 0 C 62.479,90.932 55.564,84.016 55.564,75.482 v 0 c 0,-8.533 6.915,-15.457 15.449,-15.457 v 0 c 71.367,0 113.005,33.192 113.005,73.471 v 0 c -0.934,31.322 -32.706,53.296 -70.337,60.099 v 0 c -0.078,0.009 -0.147,0.026 -0.216,0.035 v 0 c -0.139,0.026 -0.113,0.242 0.034,0.225 v 0 c 0.104,-0.009 0.199,-0.018 0.294,-0.027 v 0 c 0.242,-0.026 0.459,0.165 0.459,0.416 v 0 c 0,0 0.061,0.458 -0.51,0.458 v 0 l 0.008,0.027 -8.967,0.38 c -1.877,0.088 -3.746,0.243 -5.607,0.494 v 0 c -1.307,0.173 -2.199,0.277 -3.463,0.372 v 0 z" /></g></g></g></g><g
       id="g46"><g
         id="g48"><g
           id="g54"><g
             id="g56"><path
               id="path68"
               style="fill:url(#linearGradient66);stroke:none"
               d="m 95.67,195.257 c 60.566,-3.401 92.607,-17.994 92.607,-29.167 v 0 c 0,-18.634 -90.244,-18.711 -117.273,-18.711 v 0 c -8.533,0 -15.449,-6.925 -15.449,-15.458 v 0 c 0,-8.534 6.916,-15.449 15.449,-15.458 v 0 c 79.884,0 133.414,21.438 133.414,47.135 v 0 l 0.018,0.017 c 0,30.326 -81.347,32.334 -108.731,32.334 v 0 z" /></g></g></g></g></g></svg>