<svg width="341" height="342" viewBox="0 0 341 342" fill="none" xmlns="http://www.w3.org/2000/svg">
<g clip-path="url(#clip0_1_2)">
<g clip-path="url(#clip1_1_2)">
<mask id="mask0_1_2" style="mask-type:luminance" maskUnits="userSpaceOnUse" x="0" y="1" width="342" height="342">
<path d="M0 1.00003H341.333V342.333H0V1.00003Z" fill="white"/>
</mask>
<g mask="url(#mask0_1_2)">
<path d="M341.333 171.667C341.333 265.923 264.923 342.333 170.667 342.333C76.4107 342.333 0 265.923 0 171.667C0 77.4107 76.4107 1 170.667 1C264.923 1 341.333 77.4107 341.333 171.667Z" fill="black"/>
</g>
<path d="M127.064 81.0333C126.823 81.0333 126.625 81.2293 126.625 81.472C126.625 81.6907 126.787 81.876 127.007 81.8987C127.375 81.9453 127.929 82.0027 128.368 82.06C128.46 82.0707 128.541 82.084 128.635 82.096C129.119 82.164 129.615 82.2334 130.123 82.3027C130.227 82.3134 130.341 82.3373 130.457 82.348C130.872 82.4187 131.287 82.476 131.715 82.5453C131.864 82.568 132.004 82.5907 132.153 82.6134C132.639 82.6947 133.123 82.776 133.631 82.868C133.688 82.88 133.757 82.8907 133.827 82.9027C134.404 83.0067 135.004 83.1227 135.616 83.2373C164.441 88.7533 223.78 109.317 223.78 156.227C223.78 188.4 190.717 221.08 94.684 221.08C83.3053 221.091 74.0853 230.312 74.0853 241.691C74.0853 253.068 83.3053 262.3 94.684 262.3C189.84 262.3 245.357 218.044 245.357 164.339C244.112 122.576 201.749 93.2773 151.575 84.2067C151.471 84.1947 151.379 84.172 151.287 84.16C151.101 84.1253 151.136 83.8373 151.332 83.86C151.471 83.872 151.597 83.884 151.724 83.896C152.047 83.9307 152.336 83.676 152.336 83.3413C152.336 83.3413 152.417 82.7307 151.656 82.7307L151.667 82.6947L139.711 82.188C137.208 82.0707 134.716 81.864 132.235 81.5293C130.492 81.2987 129.303 81.16 127.617 81.0333H127.064Z" fill="url(#paint0_linear_1_2)"/>
<path d="M158.723 299.37V276.655C146.726 275.082 135.91 271.64 126.273 266.33C116.833 261.02 109.36 253.842 103.853 244.795C98.3464 235.552 95.3964 224.538 95.003 211.755H134.828C135.221 219.228 137.483 225.817 141.613 231.52C145.743 237.223 151.446 241.255 158.723 243.615V183.435L156.068 182.55C142.498 178.027 131.583 172.815 123.323 166.915C115.063 160.818 109.065 154.132 105.328 146.855C101.788 139.578 100.018 131.613 100.018 122.96C100.018 111.16 102.575 101.13 107.688 92.87C112.801 84.61 119.783 78.12 128.633 73.4C137.483 68.4833 147.513 65.5333 158.723 64.55V40.655H179.078V64.55C190.485 65.5333 200.711 68.4833 209.758 73.4C218.805 78.3167 226.081 85.0033 231.588 93.46C237.095 101.72 239.946 111.75 240.143 123.55H199.728C199.531 117.65 197.663 112.34 194.123 107.62C190.583 102.703 185.568 99.2617 179.078 97.295V152.165L189.403 155.705C194.516 157.475 200.22 159.737 206.513 162.49C213.003 165.243 219.198 168.98 225.098 173.7C230.998 178.223 235.816 184.025 239.553 191.105C243.486 197.988 245.453 206.543 245.453 216.77C245.453 228.767 242.503 239.19 236.603 248.04C230.9 256.693 223.033 263.577 213.003 268.69C203.17 273.607 191.861 276.458 179.078 277.245V299.37H158.723ZM179.078 245.385C187.141 244.402 193.533 241.648 198.253 237.125C202.973 232.602 205.333 226.702 205.333 219.425C205.333 215.098 204.645 211.362 203.268 208.215C201.891 204.872 199.335 201.823 195.598 199.07C191.861 196.317 186.355 193.563 179.078 190.81V245.385ZM158.723 143.61V97C153.216 98.3767 148.595 101.032 144.858 104.965C141.318 108.898 139.548 114.012 139.548 120.305C139.548 125.615 141.22 130.138 144.563 133.875C148.103 137.415 152.823 140.66 158.723 143.61Z" fill="white"/>
<path d="M127.56 81.9907C208.315 86.5253 251.036 105.983 251.036 120.88C251.036 145.725 130.711 145.828 94.672 145.828C83.2947 145.828 74.0733 155.061 74.0733 166.439C74.0733 177.817 83.2947 187.037 94.672 187.049C201.184 187.049 272.557 158.465 272.557 124.203L272.581 124.18C272.581 83.7453 164.119 81.068 127.607 81.068L127.56 81.9907Z" fill="url(#paint1_linear_1_2)"/>
</g>
</g>
<defs>
<linearGradient id="paint0_linear_1_2" x1="159.722" y1="82.9143" x2="159.722" y2="262.739" gradientUnits="userSpaceOnUse">
<stop stop-color="white"/>
<stop offset="0.81" stop-color="#B49AFF"/>
<stop offset="1" stop-color="#B49AFF"/>
</linearGradient>
<linearGradient id="paint1_linear_1_2" x1="173.327" y1="67.3471" x2="173.327" y2="192.588" gradientUnits="userSpaceOnUse">
<stop stop-color="white"/>
<stop offset="0.16" stop-color="white"/>
<stop offset="0.78" stop-color="#ECFB3E"/>
<stop offset="1" stop-color="#ECFB3E"/>
</linearGradient>
<clipPath id="clip0_1_2">
<rect width="341" height="342" fill="white"/>
</clipPath>
<clipPath id="clip1_1_2">
<rect width="341.333" height="341.333" fill="white" transform="translate(0 1)"/>
</clipPath>
</defs>
</svg>
