<svg width="341" height="342" viewBox="0 0 341 342" fill="none" xmlns="http://www.w3.org/2000/svg">
<g clip-path="url(#clip0_1_2)">
<g clip-path="url(#clip1_1_2)">
<mask id="mask0_1_2" style="mask-type:luminance" maskUnits="userSpaceOnUse" x="0" y="1" width="342" height="342">
<path d="M0 1.00003H341.333V342.333H0V1.00003Z" fill="white"/>
</mask>
<g mask="url(#mask0_1_2)">
<path d="M341.333 171.667C341.333 265.923 264.923 342.333 170.667 342.333C76.4107 342.333 0 265.923 0 171.667C0 77.4107 76.4107 1 170.667 1C264.923 1 341.333 77.4107 341.333 171.667Z" fill="black"/>
</g>
<path d="M127.064 81.0333C126.823 81.0333 126.625 81.2293 126.625 81.472C126.625 81.6907 126.787 81.876 127.007 81.8987C127.375 81.9453 127.929 82.0027 128.368 82.06C128.46 82.0707 128.541 82.084 128.635 82.096C129.119 82.164 129.615 82.2334 130.123 82.3027C130.227 82.3134 130.341 82.3373 130.457 82.348C130.872 82.4187 131.287 82.476 131.715 82.5453C131.864 82.568 132.004 82.5907 132.153 82.6134C132.639 82.6947 133.123 82.776 133.631 82.868C133.688 82.88 133.757 82.8907 133.827 82.9027C134.404 83.0067 135.004 83.1227 135.616 83.2373C164.441 88.7533 223.78 109.317 223.78 156.227C223.78 188.4 190.717 221.08 94.684 221.08C83.3053 221.091 74.0853 230.312 74.0853 241.691C74.0853 253.068 83.3053 262.3 94.684 262.3C189.84 262.3 245.357 218.044 245.357 164.339C244.112 122.576 201.749 93.2773 151.575 84.2067C151.471 84.1947 151.379 84.172 151.287 84.16C151.101 84.1253 151.136 83.8373 151.332 83.86C151.471 83.872 151.597 83.884 151.724 83.896C152.047 83.9307 152.336 83.676 152.336 83.3413C152.336 83.3413 152.417 82.7307 151.656 82.7307L151.667 82.6947L139.711 82.188C137.208 82.0707 134.716 81.864 132.235 81.5293C130.492 81.2987 129.303 81.16 127.617 81.0333H127.064Z" fill="url(#paint0_linear_1_2)"/>
<path d="M158.124 307.66V283.79C145.518 282.137 134.151 278.52 124.024 272.94C114.104 267.36 106.251 259.817 100.464 250.31C94.6776 240.597 91.5776 229.023 91.1642 215.59H133.014C133.428 223.443 135.804 230.367 140.144 236.36C144.484 242.353 150.478 246.59 158.124 249.07V185.83L155.334 184.9C141.074 180.147 129.604 174.67 120.924 168.47C112.244 162.063 105.941 155.037 102.014 147.39C98.2942 139.743 96.4342 131.373 96.4342 122.28C96.4342 109.88 99.1209 99.34 104.494 90.66C109.868 81.98 117.204 75.16 126.504 70.2C135.804 65.0333 146.344 61.9333 158.124 60.9V35.79H179.514V60.9C191.501 61.9333 202.248 65.0333 211.754 70.2C221.261 75.3667 228.908 82.3933 234.694 91.28C240.481 99.96 243.478 110.5 243.684 122.9H201.214C201.008 116.7 199.044 111.12 195.324 106.16C191.604 100.993 186.334 97.3767 179.514 95.31V152.97L190.364 156.69C195.738 158.55 201.731 160.927 208.344 163.82C215.164 166.713 221.674 170.64 227.874 175.6C234.074 180.353 239.138 186.45 243.064 193.89C247.198 201.123 249.264 210.113 249.264 220.86C249.264 233.467 246.164 244.42 239.964 253.72C233.971 262.813 225.704 270.047 215.164 275.42C204.831 280.587 192.948 283.583 179.514 284.41V307.66H158.124ZM179.514 250.93C187.988 249.897 194.704 247.003 199.664 242.25C204.624 237.497 207.104 231.297 207.104 223.65C207.104 219.103 206.381 215.177 204.934 211.87C203.488 208.357 200.801 205.153 196.874 202.26C192.948 199.367 187.161 196.473 179.514 193.58V250.93ZM158.124 143.98V95C152.338 96.4467 147.481 99.2367 143.554 103.37C139.834 107.503 137.974 112.877 137.974 119.49C137.974 125.07 139.731 129.823 143.244 133.75C146.964 137.47 151.924 140.88 158.124 143.98Z" fill="white"/>
<path d="M127.56 81.9907C208.315 86.5253 251.036 105.983 251.036 120.88C251.036 145.725 130.711 145.828 94.672 145.828C83.2947 145.828 74.0733 155.061 74.0733 166.439C74.0733 177.817 83.2947 187.037 94.672 187.049C201.184 187.049 272.557 158.465 272.557 124.203L272.581 124.18C272.581 83.7453 164.119 81.068 127.607 81.068L127.56 81.9907Z" fill="url(#paint1_linear_1_2)"/>
</g>
</g>
<defs>
<linearGradient id="paint0_linear_1_2" x1="159.722" y1="82.9143" x2="159.722" y2="262.739" gradientUnits="userSpaceOnUse">
<stop stop-color="white"/>
<stop offset="0.81" stop-color="#B49AFF"/>
<stop offset="1" stop-color="#B49AFF"/>
</linearGradient>
<linearGradient id="paint1_linear_1_2" x1="173.327" y1="67.3471" x2="173.327" y2="192.588" gradientUnits="userSpaceOnUse">
<stop stop-color="white"/>
<stop offset="0.16" stop-color="white"/>
<stop offset="0.78" stop-color="#ECFB3E"/>
<stop offset="1" stop-color="#ECFB3E"/>
</linearGradient>
<clipPath id="clip0_1_2">
<rect width="341" height="342" fill="white"/>
</clipPath>
<clipPath id="clip1_1_2">
<rect width="341.333" height="341.333" fill="white" transform="translate(0 1)"/>
</clipPath>
</defs>
</svg>
